<svg width="140" height="45" viewBox="0 0 140 45" fill="none" xmlns="http://www.w3.org/2000/svg">
<g clip-path="url(#clip0_191_371)">
<path d="M18.4853 41.431C17.3305 42.6541 16.121 43.5529 14.8482 44.1335C13.5753 44.7082 12.1844 45.0029 10.6725 45.0029C7.63148 45.0029 5.09152 43.9773 3.05264 41.9379C1.01377 39.8926 -0.00279236 37.3315 -0.00279236 34.2635C-0.00279236 31.1955 1.01377 28.6286 3.05264 26.5715C5.09152 24.5144 7.63148 23.4917 10.6725 23.4917C12.1038 23.4917 13.4515 23.7687 14.7128 24.3287C15.9713 24.8886 17.1318 25.708 18.1858 26.7866L14.9346 30.447C14.278 29.775 13.607 29.2799 12.9216 28.9675C12.2362 28.6492 11.4846 28.493 10.6725 28.493C9.20095 28.493 7.97417 29.0441 6.99217 30.1405C6.00441 31.2427 5.51773 32.6161 5.51773 34.2606C5.51773 35.9051 6.01017 37.249 7.00657 38.3512C7.99721 39.4476 9.22111 39.9987 10.6725 39.9987C11.5076 39.9987 12.2708 39.8277 12.9677 39.48C13.6646 39.1352 14.3989 38.5664 15.1736 37.7736L18.4853 41.4339V41.431Z" fill="white"/>
<path d="M59.4125 37.7677L62.7243 41.4281C61.5695 42.6511 60.3571 43.55 59.0871 44.1306C57.8143 44.7053 56.4233 45 54.9114 45C51.8675 45 49.3305 43.9744 47.2916 41.935C45.2527 39.8896 44.2361 37.3286 44.2361 34.2606C44.2361 31.1926 45.2527 28.6256 47.2916 26.5685C49.3305 24.5114 51.8647 23.4888 54.9114 23.4888C56.3427 23.4888 57.6904 23.7658 58.9489 24.3258C60.2131 24.8857 61.3708 25.705 62.4219 26.7837L59.1764 30.444C58.5198 29.7721 57.8488 29.277 57.1634 28.9646C56.478 28.6463 55.7264 28.4901 54.9143 28.4901C53.4428 28.4901 52.216 29.0412 51.2282 30.1375C50.2462 31.2398 49.7538 32.6131 49.7538 34.2576C49.7538 35.9022 50.252 37.2461 51.2426 38.3483C52.239 39.4446 53.4629 39.9957 54.9143 39.9957C55.7495 39.9957 56.5126 39.8248 57.2095 39.477C57.9064 39.1322 58.6408 38.5634 59.4154 37.7706L59.4125 37.7677Z" fill="white"/>
<path d="M78.8827 39.8455V44.6906H65.2239V23.7894H70.5947V39.8455H78.8827Z" fill="white"/>
<path d="M122.468 23.7894V44.6906H117.342L109.768 32.5159V44.6906H104.7V23.7894H109.826L117.402 35.967V23.7894H122.468Z" fill="white"/>
<path d="M132.012 28.6434V31.6937H139.107V36.5476H132.012V39.8455H140V44.6906H126.644V23.7894H140V28.6434H132.012Z" fill="white"/>
<path d="M101.69 34.2282C101.69 37.2991 100.68 39.8631 98.6523 41.9202C96.6249 43.9714 94.0878 45 91.0497 45C88.0115 45 85.4744 43.9685 83.4471 41.9202C81.4197 39.8661 80.406 37.2991 80.406 34.2282C80.406 31.1572 81.4226 28.6227 83.4615 26.5685C85.5004 24.5144 88.0259 23.4888 91.0497 23.4888C94.0734 23.4888 96.6019 24.5144 98.6379 26.5685C100.671 28.6227 101.693 31.1779 101.693 34.2282H101.69Z" fill="white"/>
<path d="M98.6638 34.234C98.6638 36.4326 97.941 38.2657 96.4896 39.7363C95.0382 41.204 93.2239 41.9408 91.0468 41.9408C88.8697 41.9408 87.0554 41.204 85.604 39.7363C84.1526 38.2657 83.4298 36.4296 83.4298 34.234C83.4298 32.0384 84.1584 30.2229 85.6156 28.7523C87.0727 27.2817 88.8812 26.5479 91.0468 26.5479C93.2124 26.5479 95.018 27.2817 96.478 28.7523C97.9323 30.2229 98.6638 32.0531 98.6638 34.234Z" fill="#E30613"/>
<path d="M95.856 34.1014C95.856 35.4895 95.3981 36.6477 94.4823 37.5761C93.5666 38.5015 92.4204 38.9671 91.0468 38.9671C89.6731 38.9671 88.527 38.5015 87.6112 37.5761C86.6954 36.6477 86.2375 35.4865 86.2375 34.1014C86.2375 32.7162 86.6983 31.5668 87.617 30.6385C88.5356 29.7101 89.6789 29.2474 91.0468 29.2474C92.4147 29.2474 93.555 29.7101 94.4766 30.6385C95.3952 31.5668 95.856 32.7221 95.856 34.1014Z" fill="black"/>
<path d="M37.5003 26.6717C37.198 26.1707 36.8985 25.6726 36.5759 25.1392C36.622 25.655 36.6422 26.1501 36.7113 26.6364C37.0367 28.9145 35.5191 30.5649 33.699 30.9805C32.7026 31.2074 31.7091 31.1926 30.7358 30.8714C29.126 30.3409 27.7725 28.8791 28.0864 26.5303C28.144 26.0941 28.167 25.652 28.167 25.1981L27.3434 26.6452L27.28 26.6393C27.208 26.2355 27.1418 25.8318 27.0612 25.428C26.8682 24.4466 26.7127 23.4534 26.4564 22.4868C26.3124 21.9416 26.0014 21.4405 25.7595 20.9042C24.1152 21.8944 22.5918 21.5201 21.1058 20.6772C20.5961 20.3884 20.1238 20.0259 19.6314 19.6988L19.6631 19.6045C20 19.6045 20.3398 19.6045 20.6767 19.6045C20.9906 19.6045 21.3074 19.6133 21.6213 19.6045C21.9496 19.5927 22.252 19.6398 22.5572 19.7901C23.0439 20.0318 23.568 20.079 24.1008 19.9552C24.4406 19.8756 24.7055 19.687 24.9042 19.3304C24.5356 19.0298 24.1699 18.7292 23.7955 18.4374C23.761 18.4109 23.6803 18.4315 23.6227 18.4462C23.4212 18.4963 23.2224 18.5965 23.0209 18.5965C21.27 18.6113 19.5162 18.6083 17.7653 18.6113C17.6184 18.6113 17.4715 18.6113 17.2872 18.6113C18.0763 17.8627 19.0122 17.4707 20.0259 17.2143C19.4096 16.9668 18.802 16.7487 18.2145 16.4864C16.5068 15.729 15.0381 14.6474 13.9899 13.0471C12.6623 11.0135 12.2476 8.80906 12.9388 6.43955C13.3362 5.07797 14.1425 3.96984 15.1677 3.03265C16.9474 1.40582 19.0756 0.548204 21.3996 0.159181C21.9957 0.0589779 22.6062 0.0471893 23.208 -0.00585938L23.2397 0.100238C23.185 0.138551 23.1332 0.185705 23.0727 0.215177C21.9784 0.704403 20.9618 1.31152 20.1526 2.23692C18.8481 3.72523 18.3096 5.42279 18.8826 7.37969C19.2944 8.78548 20.2304 9.77278 21.4629 10.483C22.6148 11.1491 23.8733 11.4851 25.1548 11.7503C25.437 11.8093 25.7192 11.8564 25.9985 11.9242C26.8106 12.1217 27.5767 11.8387 28.3484 11.6766C31.09 11.1078 33.8229 11.1078 36.5587 11.712C36.9906 11.8093 37.4284 11.9478 37.8661 11.9566C38.396 11.9684 38.9316 11.8947 39.4557 11.8004C40.7718 11.5676 42.059 11.2257 43.2368 10.5538C44.5212 9.81993 45.5032 8.80022 45.9409 7.33843C46.4219 5.7234 46.0763 4.22919 45.1461 2.86172C44.3312 1.66517 43.1965 0.887126 41.9121 0.309485C41.7941 0.256437 41.6875 0.185705 41.5723 0.120868L41.5983 0.0324535C41.8517 0.0324535 42.1051 0.0147707 42.3556 0.0324535C44.8668 0.229912 47.1764 1.01975 49.1721 2.6171C51.162 4.20856 52.2937 6.27746 52.1929 8.9181C52.1181 10.9015 51.3348 12.605 50.0273 14.052C48.6364 15.5934 46.8682 16.4982 44.9359 17.1023C44.8668 17.123 44.7977 17.1436 44.6595 17.1878C45.7394 17.4413 46.6753 17.8568 47.5075 18.6054C47.3031 18.6054 47.1447 18.6054 46.9863 18.6054C45.2815 18.6054 43.5767 18.6113 41.8718 18.5995C41.5983 18.5995 41.3218 18.5258 40.9186 18.4669C40.6969 18.6496 40.36 18.9266 40.0201 19.1978C39.9021 19.2921 39.9251 19.3775 40.0029 19.4866C40.2649 19.8461 40.6479 19.9522 41.0482 19.9905C41.5378 20.0406 42.0043 19.9286 42.442 19.7017C42.5284 19.6575 42.6292 19.6074 42.7242 19.6074C43.4931 19.5986 44.262 19.6015 45.0309 19.6015C45.0655 19.6015 45.0972 19.6133 45.2152 19.6339C44.6911 19.9876 44.239 20.3265 43.761 20.6124C42.9374 21.1046 42.059 21.4523 41.0914 21.4788C40.3801 21.4995 39.712 21.3462 39.1015 20.913C38.6148 21.5997 38.2952 22.363 38.1368 23.1794C37.9208 24.2845 37.7624 25.3986 37.5781 26.5096C37.5723 26.5538 37.5608 26.5951 37.5551 26.6364L37.4917 26.6629L37.5003 26.6717ZM18.4478 2.32828C18.0677 2.63479 17.6472 2.9295 17.2757 3.28316C15.9568 4.5357 15.1188 6.05053 15.0209 7.91902C14.9143 9.96434 15.784 11.5705 17.2844 12.8437C18.4334 13.8192 19.7725 14.4293 21.2037 14.8419C22.2606 15.1454 23.3405 15.4136 24.3484 15.8468C26.0734 16.5866 27.2253 17.8981 27.6717 19.8019C27.7264 20.0318 27.8387 20.2646 27.9856 20.4473C28.6307 21.249 29.1375 22.1213 29.3564 23.144C29.4859 23.7511 29.5695 24.3671 29.6703 24.9653C31.208 23.8336 33.7826 23.8631 35.1677 24.9889C35.1764 24.9712 35.1879 24.9565 35.1908 24.9388C35.1994 24.8828 35.2052 24.8268 35.208 24.7708C35.2916 23.1617 35.7667 21.7117 36.8207 20.4798C36.9762 20.297 37.1029 20.0554 37.1519 19.8196C37.4917 18.1928 38.4276 17.0257 39.7955 16.1976C40.6479 15.6818 41.5925 15.4077 42.5457 15.169C44.3888 14.7063 46.1195 14.0049 47.6026 12.7523C49.2498 11.3613 49.9985 9.5989 49.7134 7.40327C49.532 6.00927 48.9129 4.83925 48.023 3.79596C47.5651 3.25958 47.0324 2.82046 46.442 2.44322C46.4449 2.49332 46.4651 2.53164 46.4881 2.567C46.8366 3.11222 47.2397 3.63092 47.5248 4.20856C48.6105 6.41598 48.5155 8.58508 47.1418 10.6333C46.1972 12.0391 44.8207 12.8761 43.2772 13.4155C42.2376 13.778 41.1605 14.0285 40.1008 14.3291C38.6206 14.7505 37.1893 15.2692 35.9683 16.2683C34.8049 17.2202 33.9525 18.3843 33.6559 19.9051C33.5493 20.4503 33.5147 21.0103 33.4658 21.5673C33.437 21.8973 33.437 21.8885 33.1289 21.8531C32.743 21.8089 32.3542 21.7942 31.9683 21.7942C31.7926 21.7942 31.6141 21.859 31.4039 21.9032C31.3837 21.6498 31.3664 21.4346 31.352 21.2195C31.2541 19.7872 30.8682 18.4698 29.9467 17.3469C28.933 16.1121 27.64 15.2987 26.1685 14.8006C24.9417 14.3851 23.6803 14.0668 22.4334 13.7131C20.9014 13.2799 19.5133 12.605 18.3758 11.4232C16.4751 9.44564 16.0345 6.4926 17.3448 4.05826C17.6674 3.45704 18.0792 2.90887 18.4507 2.33418L18.4478 2.32828ZM32.5155 25.7463C31.6861 25.7375 31.1476 25.8907 30.6811 26.2355C29.7077 26.9546 29.7163 28.1718 30.7329 28.8231C31.7667 29.4862 32.8697 29.4951 33.9294 28.9204C35.1562 28.2543 35.1649 26.8898 33.987 26.1324C33.509 25.8259 32.9733 25.7375 32.5155 25.7463ZM35.9625 13.0972C33.5666 12.4046 31.1908 12.3898 28.7977 13.0883C30.5025 13.9489 31.7523 15.2309 32.4262 17.1289C33.077 15.2397 34.2952 13.9695 35.9625 13.0972Z" fill="white"/>
<path d="M35.9741 45H28.838C28.838 44.7701 28.838 44.555 28.838 44.3398C28.8409 41.7876 28.838 39.2383 28.8553 36.6861C28.8639 35.5544 28.4032 34.6172 27.7293 33.789C26.802 32.6455 25.8258 31.5374 24.8495 30.4381C22.9287 28.2779 20.9935 26.1353 19.0641 23.9839C19.0353 23.9515 19.0122 23.9102 18.9633 23.8424C19.0641 23.8365 19.1332 23.8306 19.1994 23.8306C21.175 23.8306 23.1476 23.8365 25.1231 23.8218C25.4025 23.8218 25.4946 23.922 25.5752 24.1784C26.0014 25.5576 26.3989 26.9516 26.9057 28.3044C27.6055 30.1758 28.838 31.5345 30.7876 32.0974C30.8999 32.1298 31.0151 32.2241 31.0871 32.3214C31.4816 32.8577 31.8618 33.4059 32.2505 33.9511C32.3053 34.0277 32.3629 34.0985 32.4406 34.1957C32.8755 33.5621 33.2901 32.9491 33.7163 32.342C33.7883 32.2418 33.8949 32.1268 34.0043 32.1003C35.5652 31.7172 36.6336 30.6886 37.4514 29.3388C37.964 28.493 38.2289 27.5411 38.5256 26.6068C38.802 25.7433 39.0698 24.8798 39.3319 24.0104C39.378 23.8601 39.45 23.8277 39.5882 23.8277C41.6559 23.8277 43.7207 23.8277 45.7883 23.8277C45.8143 23.8277 45.8373 23.8395 45.8863 23.8512C45.3909 24.3935 44.8985 24.9152 44.4205 25.4515C42.2693 27.8682 40.1238 30.2908 37.9755 32.7133C37.3967 33.3676 36.838 34.0366 36.4406 34.8264C36.1411 35.4188 35.9712 36.0377 35.9712 36.7038C35.9741 39.3503 35.9741 41.9968 35.977 44.6434C35.977 44.7613 35.977 44.8792 35.977 45H35.9741Z" fill="white"/>
</g>
<defs>
<clipPath id="clip0_191_371">
<rect width="140" height="45" fill="white"/>
</clipPath>
</defs>
</svg>
