<svg width="107" height="90" viewBox="0 0 107 90" fill="none" xmlns="http://www.w3.org/2000/svg">
<mask id="path-1-inside-1_366_173" fill="white">
<path d="M67.2509 77.1063C66.4344 75.6591 65.6214 74.2158 64.7519 72.6719C64.8756 74.1655 64.9322 75.5933 65.1195 76.9979C65.9961 83.5799 61.8959 88.3509 56.9827 89.5543C54.2928 90.2121 51.6065 90.1695 48.9767 89.2408C44.6255 87.7047 40.9707 83.4831 41.8155 76.6923C41.9745 75.4269 42.0346 74.15 42.0346 72.8422C41.2923 74.2352 40.5501 75.6282 39.8078 77.0212L39.6381 77.0018C39.4437 75.8332 39.2634 74.6647 39.0514 73.5038C38.5318 70.6637 38.1076 67.7925 37.4184 65.0027C37.0295 63.424 36.1883 61.9768 35.5344 60.429C31.0948 63.2924 26.9699 62.2089 22.9545 59.7751C21.5725 58.9393 20.2964 57.8945 18.9745 56.9426L19.0628 56.6718C19.9748 56.6718 20.8903 56.6718 21.8022 56.6718C22.6541 56.6718 23.5059 56.695 24.3578 56.664C25.2414 56.6331 26.065 56.7646 26.8851 57.2019C28.2 57.8984 29.6174 58.0377 31.056 57.6817C31.975 57.4534 32.6854 56.9039 33.2262 55.8708C32.2295 55.0041 31.2398 54.1334 30.2324 53.2899C30.1369 53.2086 29.9178 53.2744 29.7658 53.3131C29.2215 53.4563 28.6807 53.7465 28.1363 53.7504C23.4034 53.7929 18.6705 53.7891 13.9341 53.7968C13.5382 53.7968 13.1423 53.7968 12.6439 53.7968C14.7753 51.6299 17.3061 50.5039 20.042 49.761C18.3736 49.049 16.737 48.4105 15.1464 47.656C10.5302 45.4698 6.56075 42.3433 3.73302 37.7154C0.145337 31.8493 -0.975151 25.4725 0.891151 18.6197C1.96569 14.6806 4.14304 11.4845 6.91068 8.77588C11.7214 4.07065 17.4758 1.59808 23.7569 0.472071C25.3687 0.185733 27.0158 0.150908 28.6453 0L28.7337 0.309555C28.5852 0.421769 28.4474 0.561068 28.2848 0.638457C25.3263 2.05467 22.5798 3.8114 20.3919 6.48131C16.8678 10.7841 15.4115 15.6906 16.9633 21.3516C18.0767 25.4145 20.604 28.2701 23.9336 30.3248C27.0441 32.2479 30.448 33.2191 33.912 33.9853C34.6719 34.1517 35.4354 34.291 36.1883 34.4844C38.3833 35.0571 40.4546 34.2368 42.5401 33.7724C49.9487 32.1241 57.3362 32.1241 64.7271 33.8769C65.8971 34.1555 67.0777 34.5579 68.2583 34.585C69.6863 34.6199 71.1355 34.4032 72.5529 34.1362C76.1088 33.459 79.5869 32.4762 82.7681 30.5299C86.2356 28.4094 88.8936 25.4609 90.0742 21.2355C91.375 16.5689 90.4383 12.2468 87.9287 8.29607C85.7266 4.83293 82.6585 2.58865 79.1875 0.917057C78.8693 0.766149 78.576 0.557199 78.272 0.371466L78.3391 0.116083C79.0213 0.116083 79.7071 0.0657804 80.3892 0.123822C87.1793 0.696499 93.4145 2.98334 98.8154 7.59958C104.195 12.2042 107.249 18.1786 106.984 25.8091C106.786 31.5398 104.662 36.4694 101.134 40.6523C97.3768 45.1099 92.6015 47.7218 87.3773 49.4708C87.1899 49.5327 86.9991 49.5946 86.6315 49.7145C89.5546 50.4497 92.0819 51.6493 94.33 53.8123C93.775 53.8123 93.3509 53.8123 92.9232 53.8123C88.314 53.8123 83.7048 53.8277 79.0991 53.7968C78.3568 53.7929 77.6145 53.584 76.5223 53.4137C75.9179 53.94 75.0095 54.7409 74.0905 55.5303C73.7724 55.8012 73.8324 56.0527 74.041 56.3622C74.7479 57.407 75.7836 57.7088 76.8652 57.821C78.1871 57.9603 79.4455 57.643 80.6331 56.9852C80.87 56.8536 81.1386 56.7143 81.3931 56.7105C83.4715 56.6834 85.5499 56.6911 87.6282 56.6911C87.7201 56.6911 87.8085 56.7221 88.1266 56.784C86.7128 57.8094 85.4933 58.7845 84.1961 59.6126C81.9728 61.0365 79.601 62.0387 76.9783 62.1161C75.059 62.1741 73.2492 61.733 71.5985 60.4832C70.2872 62.4682 69.4176 64.6699 68.99 67.0341C68.4067 70.2264 67.979 73.4535 67.4842 76.6652C67.4665 76.789 67.4418 76.9128 67.417 77.0366L67.2474 77.1102L67.2509 77.1063ZM15.7579 6.73282C14.7294 7.61892 13.5912 8.47407 12.5909 9.49173C9.02794 13.1097 6.75869 17.4937 6.49713 22.8955C6.21082 28.8041 8.56137 33.4513 12.6156 37.1273C15.7226 39.9442 19.335 41.7125 23.2125 42.9082C26.0686 43.7904 28.9846 44.5604 31.7134 45.8103C36.3792 47.9462 39.4861 51.7383 40.6985 57.2445C40.8434 57.9061 41.151 58.5833 41.5433 59.1095C43.2894 61.4273 44.6573 63.9502 45.2441 66.9064C45.5905 68.6593 45.8202 70.4431 46.0924 72.1689C50.2492 68.8953 57.2054 68.9843 60.9486 72.2347C60.9698 72.1882 61.0016 72.1418 61.0087 72.0915C61.0299 71.929 61.0476 71.7665 61.0546 71.6039C61.2773 66.949 62.5639 62.7584 65.4164 59.2024C65.837 58.68 66.1764 57.9719 66.3071 57.2909C67.2226 52.5857 69.757 49.2192 73.4507 46.8202C75.7518 45.3266 78.3109 44.5411 80.8841 43.8485C85.8644 42.5096 90.5443 40.4782 94.5491 36.8603C99.0028 32.836 101.028 27.7439 100.251 21.4019C99.7557 17.3776 98.0838 13.9919 95.6837 10.9699C94.4466 9.41434 93.008 8.14517 91.4139 7.06172C91.4245 7.20876 91.4775 7.31711 91.5376 7.41771C92.4778 8.99644 93.5665 10.4939 94.337 12.1655C97.2708 18.5462 97.0163 24.8147 93.3014 30.7427C90.7529 34.8056 87.0238 37.2279 82.8564 38.7834C80.0464 39.832 77.1374 40.5556 74.2743 41.4262C70.2766 42.6412 66.4026 44.1464 63.1047 47.0291C59.9589 49.7764 57.6578 53.1429 56.8555 57.5424C56.5692 59.1211 56.4737 60.7424 56.3394 62.3483C56.2581 63.3001 56.2652 63.2769 55.4275 63.1763C54.3883 63.0525 53.3385 63.0061 52.2922 63.0061C51.815 63.0061 51.3343 63.1957 50.7652 63.3195C50.7122 62.5843 50.6663 61.9652 50.6239 61.3422C50.3588 57.2019 49.316 53.3905 46.8276 50.1479C44.0883 46.5764 40.5889 44.2277 36.616 42.7844C33.3005 41.581 29.8966 40.66 26.5245 39.6385C22.3854 38.3848 18.6316 36.4308 15.56 33.014C10.4241 27.2989 9.23295 18.759 12.7782 11.7283C13.6548 9.99476 14.7647 8.40442 15.765 6.7483L15.7579 6.73282ZM53.7732 74.4286C51.5323 74.4054 50.0795 74.8465 48.8176 75.8448C46.1879 77.9227 46.2126 81.4439 48.9555 83.3206C51.7514 85.236 54.7311 85.2631 57.5942 83.6031C60.9097 81.68 60.938 77.7331 57.7497 75.5469C56.456 74.6608 55.0068 74.4016 53.7768 74.4286H53.7732ZM63.0906 37.8624C56.6186 35.8619 50.1962 35.8233 43.7313 37.8392C48.3405 40.3273 51.7161 44.0342 53.5364 49.5211C55.2931 44.0613 58.591 40.3853 63.0941 37.8624H63.0906Z"/>
</mask>
<path d="M67.2509 77.1063C66.4344 75.6591 65.6214 74.2158 64.7519 72.6719C64.8756 74.1655 64.9322 75.5933 65.1195 76.9979C65.9961 83.5799 61.8959 88.3509 56.9827 89.5543C54.2928 90.2121 51.6065 90.1695 48.9767 89.2408C44.6255 87.7047 40.9707 83.4831 41.8155 76.6923C41.9745 75.4269 42.0346 74.15 42.0346 72.8422C41.2923 74.2352 40.5501 75.6282 39.8078 77.0212L39.6381 77.0018C39.4437 75.8332 39.2634 74.6647 39.0514 73.5038C38.5318 70.6637 38.1076 67.7925 37.4184 65.0027C37.0295 63.424 36.1883 61.9768 35.5344 60.429C31.0948 63.2924 26.9699 62.2089 22.9545 59.7751C21.5725 58.9393 20.2964 57.8945 18.9745 56.9426L19.0628 56.6718C19.9748 56.6718 20.8903 56.6718 21.8022 56.6718C22.6541 56.6718 23.5059 56.695 24.3578 56.664C25.2414 56.6331 26.065 56.7646 26.8851 57.2019C28.2 57.8984 29.6174 58.0377 31.056 57.6817C31.975 57.4534 32.6854 56.9039 33.2262 55.8708C32.2295 55.0041 31.2398 54.1334 30.2324 53.2899C30.1369 53.2086 29.9178 53.2744 29.7658 53.3131C29.2215 53.4563 28.6807 53.7465 28.1363 53.7504C23.4034 53.7929 18.6705 53.7891 13.9341 53.7968C13.5382 53.7968 13.1423 53.7968 12.6439 53.7968C14.7753 51.6299 17.3061 50.5039 20.042 49.761C18.3736 49.049 16.737 48.4105 15.1464 47.656C10.5302 45.4698 6.56075 42.3433 3.73302 37.7154C0.145337 31.8493 -0.975151 25.4725 0.891151 18.6197C1.96569 14.6806 4.14304 11.4845 6.91068 8.77588C11.7214 4.07065 17.4758 1.59808 23.7569 0.472071C25.3687 0.185733 27.0158 0.150908 28.6453 0L28.7337 0.309555C28.5852 0.421769 28.4474 0.561068 28.2848 0.638457C25.3263 2.05467 22.5798 3.8114 20.3919 6.48131C16.8678 10.7841 15.4115 15.6906 16.9633 21.3516C18.0767 25.4145 20.604 28.2701 23.9336 30.3248C27.0441 32.2479 30.448 33.2191 33.912 33.9853C34.6719 34.1517 35.4354 34.291 36.1883 34.4844C38.3833 35.0571 40.4546 34.2368 42.5401 33.7724C49.9487 32.1241 57.3362 32.1241 64.7271 33.8769C65.8971 34.1555 67.0777 34.5579 68.2583 34.585C69.6863 34.6199 71.1355 34.4032 72.5529 34.1362C76.1088 33.459 79.5869 32.4762 82.7681 30.5299C86.2356 28.4094 88.8936 25.4609 90.0742 21.2355C91.375 16.5689 90.4383 12.2468 87.9287 8.29607C85.7266 4.83293 82.6585 2.58865 79.1875 0.917057C78.8693 0.766149 78.576 0.557199 78.272 0.371466L78.3391 0.116083C79.0213 0.116083 79.7071 0.0657804 80.3892 0.123822C87.1793 0.696499 93.4145 2.98334 98.8154 7.59958C104.195 12.2042 107.249 18.1786 106.984 25.8091C106.786 31.5398 104.662 36.4694 101.134 40.6523C97.3768 45.1099 92.6015 47.7218 87.3773 49.4708C87.1899 49.5327 86.9991 49.5946 86.6315 49.7145C89.5546 50.4497 92.0819 51.6493 94.33 53.8123C93.775 53.8123 93.3509 53.8123 92.9232 53.8123C88.314 53.8123 83.7048 53.8277 79.0991 53.7968C78.3568 53.7929 77.6145 53.584 76.5223 53.4137C75.9179 53.94 75.0095 54.7409 74.0905 55.5303C73.7724 55.8012 73.8324 56.0527 74.041 56.3622C74.7479 57.407 75.7836 57.7088 76.8652 57.821C78.1871 57.9603 79.4455 57.643 80.6331 56.9852C80.87 56.8536 81.1386 56.7143 81.3931 56.7105C83.4715 56.6834 85.5499 56.6911 87.6282 56.6911C87.7201 56.6911 87.8085 56.7221 88.1266 56.784C86.7128 57.8094 85.4933 58.7845 84.1961 59.6126C81.9728 61.0365 79.601 62.0387 76.9783 62.1161C75.059 62.1741 73.2492 61.733 71.5985 60.4832C70.2872 62.4682 69.4176 64.6699 68.99 67.0341C68.4067 70.2264 67.979 73.4535 67.4842 76.6652C67.4665 76.789 67.4418 76.9128 67.417 77.0366L67.2474 77.1102L67.2509 77.1063ZM15.7579 6.73282C14.7294 7.61892 13.5912 8.47407 12.5909 9.49173C9.02794 13.1097 6.75869 17.4937 6.49713 22.8955C6.21082 28.8041 8.56137 33.4513 12.6156 37.1273C15.7226 39.9442 19.335 41.7125 23.2125 42.9082C26.0686 43.7904 28.9846 44.5604 31.7134 45.8103C36.3792 47.9462 39.4861 51.7383 40.6985 57.2445C40.8434 57.9061 41.151 58.5833 41.5433 59.1095C43.2894 61.4273 44.6573 63.9502 45.2441 66.9064C45.5905 68.6593 45.8202 70.4431 46.0924 72.1689C50.2492 68.8953 57.2054 68.9843 60.9486 72.2347C60.9698 72.1882 61.0016 72.1418 61.0087 72.0915C61.0299 71.929 61.0476 71.7665 61.0546 71.6039C61.2773 66.949 62.5639 62.7584 65.4164 59.2024C65.837 58.68 66.1764 57.9719 66.3071 57.2909C67.2226 52.5857 69.757 49.2192 73.4507 46.8202C75.7518 45.3266 78.3109 44.5411 80.8841 43.8485C85.8644 42.5096 90.5443 40.4782 94.5491 36.8603C99.0028 32.836 101.028 27.7439 100.251 21.4019C99.7557 17.3776 98.0838 13.9919 95.6837 10.9699C94.4466 9.41434 93.008 8.14517 91.4139 7.06172C91.4245 7.20876 91.4775 7.31711 91.5376 7.41771C92.4778 8.99644 93.5665 10.4939 94.337 12.1655C97.2708 18.5462 97.0163 24.8147 93.3014 30.7427C90.7529 34.8056 87.0238 37.2279 82.8564 38.7834C80.0464 39.832 77.1374 40.5556 74.2743 41.4262C70.2766 42.6412 66.4026 44.1464 63.1047 47.0291C59.9589 49.7764 57.6578 53.1429 56.8555 57.5424C56.5692 59.1211 56.4737 60.7424 56.3394 62.3483C56.2581 63.3001 56.2652 63.2769 55.4275 63.1763C54.3883 63.0525 53.3385 63.0061 52.2922 63.0061C51.815 63.0061 51.3343 63.1957 50.7652 63.3195C50.7122 62.5843 50.6663 61.9652 50.6239 61.3422C50.3588 57.2019 49.316 53.3905 46.8276 50.1479C44.0883 46.5764 40.5889 44.2277 36.616 42.7844C33.3005 41.581 29.8966 40.66 26.5245 39.6385C22.3854 38.3848 18.6316 36.4308 15.56 33.014C10.4241 27.2989 9.23295 18.759 12.7782 11.7283C13.6548 9.99476 14.7647 8.40442 15.765 6.7483L15.7579 6.73282ZM53.7732 74.4286C51.5323 74.4054 50.0795 74.8465 48.8176 75.8448C46.1879 77.9227 46.2126 81.4439 48.9555 83.3206C51.7514 85.236 54.7311 85.2631 57.5942 83.6031C60.9097 81.68 60.938 77.7331 57.7497 75.5469C56.456 74.6608 55.0068 74.4016 53.7768 74.4286H53.7732ZM63.0906 37.8624C56.6186 35.8619 50.1962 35.8233 43.7313 37.8392C48.3405 40.3273 51.7161 44.0342 53.5364 49.5211C55.2931 44.0613 58.591 40.3853 63.0941 37.8624H63.0906Z" fill="black" stroke="black" stroke-opacity="0.05" stroke-width="2" mask="url(#path-1-inside-1_366_173)"/>
</svg>
